<svg xmlns="http://www.w3.org/2000/svg" xmlns:xlink="http://www.w3.org/1999/xlink" width="250" zoomAndPan="magnify" viewBox="0 0 187.5 187.499992" height="250" preserveAspectRatio="xMidYMid meet" version="1.0"><defs><clipPath id="089e1fa387"><path d="M 0 0 L 187 0 L 187 187 L 0 187 Z M 0 0 " clip-rule="nonzero"/></clipPath><clipPath id="dcd062c751"><path d="M 73 24.414062 L 96 24.414062 L 96 48 L 73 48 Z M 73 24.414062 " clip-rule="nonzero"/></clipPath><clipPath id="a4662d4646"><path d="M 79 39 L 187 39 L 187 167 L 79 167 Z M 79 39 " clip-rule="nonzero"/></clipPath></defs><g clip-path="url(#089e1fa387)"><path fill="#ffffff" d="M 0 0 L 187.5 0 L 187.5 195 L 0 195 Z M 0 0 " fill-opacity="1" fill-rule="nonzero"/><path fill="#ffffff" d="M 0 0 L 187.5 0 L 187.5 187.5 L 0 187.5 Z M 0 0 " fill-opacity="1" fill-rule="nonzero"/><path fill="#ffffff" d="M 0 0 L 187.5 0 L 187.5 187.5 L 0 187.5 Z M 0 0 " fill-opacity="1" fill-rule="nonzero"/></g><path fill="#fbe4cc" d="M 116.648438 97.132812 C 116.648438 97.132812 122.746094 97.511719 124.523438 93.441406 C 126.300781 89.367188 125.652344 85.878906 121.097656 81.84375 C 116.628906 77.886719 116.632812 92.886719 116.648438 97.132812 Z M 116.648438 97.132812 " fill-opacity="1" fill-rule="evenodd"/><path fill="#fbe4cc" d="M 115.789062 117.285156 C 115.789062 117.285156 124.871094 113.359375 128.101562 116.078125 C 131.730469 119.132812 129.8125 124.257812 124.707031 128.582031 C 119.605469 132.90625 115.789062 117.285156 115.789062 117.285156 Z M 115.789062 117.285156 " fill-opacity="1" fill-rule="evenodd"/><path fill="#76503a" d="M 126.761719 118.207031 C 126.761719 118.207031 127.75 117.894531 128.769531 118.3125 C 129.03125 118.421875 129.332031 118.292969 129.441406 118.03125 C 129.550781 117.765625 129.425781 117.464844 129.160156 117.355469 C 127.785156 116.792969 126.445312 117.226562 126.445312 117.226562 C 126.175781 117.3125 126.023438 117.605469 126.113281 117.875 C 126.199219 118.144531 126.492188 118.296875 126.761719 118.207031 Z M 126.761719 118.207031 " fill-opacity="1" fill-rule="evenodd"/><path fill="#76503a" d="M 127.066406 121.417969 C 127.066406 121.417969 127.582031 121.300781 128.175781 121.347656 C 128.53125 121.375 128.917969 121.457031 129.21875 121.691406 C 129.441406 121.871094 129.769531 121.828125 129.945312 121.605469 C 130.121094 121.382812 130.082031 121.058594 129.859375 120.882812 C 129.394531 120.519531 128.804688 120.363281 128.257812 120.320312 C 127.496094 120.257812 126.835938 120.410156 126.835938 120.410156 C 126.558594 120.472656 126.382812 120.75 126.445312 121.027344 C 126.507812 121.304688 126.785156 121.480469 127.066406 121.417969 Z M 127.066406 121.417969 " fill-opacity="1" fill-rule="evenodd"/><g clip-path="url(#dcd062c751)"><path fill="#f2c27c" d="M 73.785156 36.429688 C 73.785156 36.429688 85.382812 24.417969 89.328125 24.898438 C 92.871094 25.328125 95.363281 36.914062 95.8125 45.023438 C 96.265625 53.132812 73.785156 36.429688 73.785156 36.429688 Z M 73.785156 36.429688 " fill-opacity="1" fill-rule="evenodd"/></g><path fill="#e5816d" d="M 80.453125 36.945312 C 80.453125 36.945312 86.445312 30.402344 87.949219 30.816406 C 89.453125 31.230469 90.785156 36.917969 90.925781 41.183594 C 91.066406 45.445312 80.453125 36.945312 80.453125 36.945312 Z M 80.453125 36.945312 " fill-opacity="1" fill-rule="evenodd"/><path fill="#fbe4cc" d="M 51.429688 72.238281 C 48.957031 67.863281 47.980469 63.195312 48.113281 58.25 C 48.175781 55.933594 46.214844 52.046875 44.953125 48.183594 C 43.65625 44.214844 43.0625 40.285156 43.507812 39.566406 C 44.386719 38.15625 52.671875 37.855469 60.296875 39.90625 C 60.296875 39.90625 74.757812 31.347656 87.707031 37.066406 C 100.160156 42.5625 101.121094 53.027344 101.40625 59.460938 C 101.6875 65.894531 93.699219 148.332031 93.699219 148.332031 L 69.859375 155.605469 C 69.859375 155.605469 43.269531 161.339844 29.285156 156.261719 C 18.75 152.433594 11.628906 143.550781 11.769531 133.050781 C 11.90625 122.554688 14.476562 114.21875 11.429688 109.191406 C 8.386719 104.164062 4.460938 105.074219 2 102.367188 C 0.246094 100.441406 0.574219 96.273438 4.765625 95.921875 C 9.476562 95.527344 13.796875 98.152344 16.839844 101.597656 C 19.882812 105.039062 22.105469 112.613281 21.027344 120.515625 C 19.945312 128.417969 19.734375 143.523438 31.917969 145.164062 C 31.917969 145.164062 26.828125 132.832031 30.496094 118.375 C 34.167969 103.914062 46.546875 90.753906 51.835938 84.964844 C 56.691406 79.652344 55.195312 78.914062 51.429688 72.238281 Z M 51.429688 72.238281 " fill-opacity="1" fill-rule="evenodd"/><path fill="#ecd1b5" d="M 75.863281 82.945312 C 75.863281 82.945312 82.535156 84.210938 86.691406 80.609375 C 86.90625 80.421875 86.929688 80.097656 86.742188 79.882812 C 86.558594 79.667969 86.230469 79.644531 86.015625 79.828125 C 84.269531 81.34375 82.039062 81.910156 80.132812 82.082031 C 77.867188 82.285156 76.058594 81.929688 76.058594 81.929688 C 75.777344 81.878906 75.507812 82.058594 75.453125 82.339844 C 75.398438 82.621094 75.582031 82.890625 75.863281 82.945312 Z M 75.863281 82.945312 " fill-opacity="1" fill-rule="evenodd"/><path fill="#ecd1b5" d="M 80.734375 145.78125 L 90.59375 132.53125 L 100.3125 145.246094 C 100.3125 145.246094 92.175781 153.390625 91.03125 154.027344 C 89.886719 154.667969 78.75 149.882812 78.75 149.882812 Z M 80.734375 145.78125 " fill-opacity="1" fill-rule="evenodd"/><g clip-path="url(#a4662d4646)"><path fill="#eaa331" d="M 186.84375 61.015625 C 186.84375 64.289062 185.925781 67.207031 184.085938 69.761719 C 182.25 72.316406 180.128906 74.3125 177.726562 75.757812 C 174.191406 73.527344 170.304688 71.628906 166.0625 70.054688 C 161.820312 68.484375 156.941406 67.695312 151.429688 67.695312 C 144.21875 67.695312 138.105469 69.105469 133.085938 71.921875 C 128.066406 74.742188 124.25 78.800781 121.632812 84.109375 C 119.019531 89.414062 117.710938 95.804688 117.710938 103.273438 C 117.710938 114.804688 120.855469 123.582031 127.148438 129.609375 C 133.4375 135.636719 142.167969 138.652344 153.339844 138.652344 C 159.132812 138.652344 164.046875 137.933594 168.074219 136.488281 C 172.105469 135.050781 175.957031 133.410156 179.632812 131.574219 C 182.039062 133.28125 183.910156 135.441406 185.253906 138.0625 C 186.597656 140.683594 187.269531 143.695312 187.269531 147.105469 C 187.269531 150.117188 186.421875 152.871094 184.722656 155.359375 C 183.027344 157.847656 180.128906 159.945312 176.027344 161.648438 C 173.484375 162.695312 169.878906 163.746094 165.214844 164.792969 C 160.546875 165.839844 154.894531 166.367188 148.25 166.367188 C 135.523438 166.367188 123.96875 164.136719 113.578125 159.683594 C 103.183594 155.226562 94.914062 148.347656 88.765625 139.046875 C 82.613281 129.742188 79.539062 117.816406 79.539062 103.273438 C 79.539062 89.644531 82.507812 78.148438 88.445312 68.777344 C 94.382812 59.410156 102.40625 52.269531 112.515625 47.355469 C 122.625 42.441406 133.757812 39.984375 145.914062 39.984375 C 154.539062 39.984375 161.890625 40.902344 167.96875 42.734375 C 174.050781 44.570312 178.714844 47.058594 181.964844 50.203125 C 185.21875 53.347656 186.84375 56.953125 186.84375 61.015625 Z M 186.84375 61.015625 " fill-opacity="1" fill-rule="nonzero"/></g><path fill="#f2c27c" d="M 34.554688 125.800781 C 36.351562 123.234375 42.28125 119.933594 45.914062 124.132812 C 49.875 128.714844 47.808594 133.757812 43.511719 135.554688 C 38.097656 137.816406 29.128906 133.539062 34.554688 125.800781 Z M 51.136719 85.730469 C 54.605469 89.921875 57.523438 96.042969 55.214844 103.683594 C 51.597656 115.679688 39.171875 119.957031 30.523438 118.273438 C 34.070312 104.460938 45.542969 91.84375 51.136719 85.730469 Z M 64.433594 37.9375 C 64.78125 53.121094 53.898438 60.53125 48.394531 63.304688 C 48.15625 61.652344 48.066406 59.96875 48.113281 58.25 C 48.175781 55.933594 46.214844 52.046875 44.953125 48.183594 C 43.65625 44.214844 43.0625 40.285156 43.507812 39.566406 C 44.386719 38.15625 52.671875 37.855469 60.296875 39.90625 C 60.296875 39.90625 61.863281 38.976562 64.433594 37.9375 Z M 64.433594 37.9375 " fill-opacity="1" fill-rule="evenodd"/><path fill="#e5816d" d="M 51.082031 51.464844 C 51.082031 51.464844 47.882812 43.769531 48.382812 43.117188 C 48.882812 42.460938 55.707031 43.28125 56.429688 43.597656 C 57.148438 43.910156 54.023438 45.699219 51.082031 51.464844 Z M 51.082031 51.464844 " fill-opacity="1" fill-rule="evenodd"/><path fill="#fbe4cc" d="M 79.40625 89.007812 C 79.40625 89.007812 89.832031 93.125 99.253906 94.320312 C 105.105469 95.0625 108.308594 96.902344 108.511719 100.632812 C 108.761719 105.226562 104.203125 107.535156 97.980469 108.644531 C 92.125 109.691406 81.175781 108.367188 76.351562 107.121094 C 71.527344 105.875 79.40625 89.007812 79.40625 89.007812 Z M 79.40625 89.007812 " fill-opacity="1" fill-rule="evenodd"/><path fill="#76503a" d="M 64.824219 56.15625 C 64.824219 56.15625 66.820312 55.09375 69.40625 55.820312 C 69.789062 55.929688 70.191406 55.707031 70.296875 55.320312 C 70.40625 54.9375 70.183594 54.539062 69.796875 54.429688 C 66.597656 53.53125 64.132812 54.886719 64.132812 54.886719 C 63.78125 55.078125 63.652344 55.515625 63.84375 55.867188 C 64.03125 56.214844 64.472656 56.347656 64.824219 56.15625 Z M 64.824219 56.15625 " fill-opacity="1" fill-rule="evenodd"/><path fill="#76503a" d="M 83.660156 51.316406 C 83.660156 51.316406 85.0625 49.339844 87.339844 48.960938 C 87.734375 48.894531 88.003906 48.523438 87.9375 48.128906 C 87.871094 47.734375 87.5 47.46875 87.105469 47.535156 C 84.246094 48.011719 82.480469 50.480469 82.480469 50.480469 C 82.25 50.804688 82.328125 51.257812 82.652344 51.488281 C 82.980469 51.71875 83.429688 51.640625 83.660156 51.316406 Z M 83.660156 51.316406 " fill-opacity="1" fill-rule="evenodd"/><path fill="#76503a" d="M 80.1875 61.429688 L 79.769531 59.929688 C 79.691406 59.652344 79.40625 59.492188 79.132812 59.570312 C 78.859375 59.644531 78.695312 59.929688 78.773438 60.203125 L 79.210938 61.769531 C 77.777344 63.417969 76.34375 64.085938 75.117188 64.265625 C 73.265625 64.542969 71.917969 63.714844 71.917969 63.714844 C 71.679688 63.566406 71.359375 63.640625 71.207031 63.882812 C 71.058594 64.125 71.132812 64.441406 71.375 64.59375 C 71.375 64.59375 73.011719 65.621094 75.269531 65.289062 C 76.679688 65.078125 78.34375 64.34375 79.992188 62.441406 C 80.695312 62.550781 82.511719 62.746094 84.316406 62.324219 C 85.925781 61.949219 87.519531 61.089844 88.394531 59.320312 C 88.519531 59.066406 88.414062 58.753906 88.160156 58.628906 C 87.90625 58.503906 87.59375 58.609375 87.46875 58.863281 C 86.742188 60.324219 85.410156 61.007812 84.082031 61.320312 C 82.464844 61.695312 80.839844 61.527344 80.1875 61.429688 Z M 80.1875 61.429688 " fill-opacity="1" fill-rule="evenodd"/><path fill="#e5816d" d="M 74.679688 58.195312 C 74.929688 59.023438 76.621094 59.734375 78.601562 59.78125 C 80.585938 59.828125 82.507812 57.035156 82.167969 56.191406 C 81.976562 55.707031 80.363281 54.957031 77.707031 55.585938 C 75.507812 56.105469 74.457031 57.464844 74.679688 58.195312 Z M 74.679688 58.195312 " fill-opacity="1" fill-rule="evenodd"/><path fill="#76503a" d="M 104.855469 99.730469 C 104.855469 99.730469 106.925781 99.933594 107.695312 100.339844 C 107.949219 100.472656 108.261719 100.378906 108.394531 100.128906 C 108.527344 99.875 108.433594 99.5625 108.179688 99.429688 C 107.308594 98.964844 104.964844 98.703125 104.964844 98.703125 C 104.679688 98.671875 104.425781 98.878906 104.398438 99.160156 C 104.367188 99.445312 104.574219 99.699219 104.855469 99.730469 Z M 104.855469 99.730469 " fill-opacity="1" fill-rule="evenodd"/><path fill="#76503a" d="M 104.722656 103.28125 C 104.722656 103.28125 106.917969 103.246094 107.808594 102.988281 C 108.082031 102.90625 108.242188 102.621094 108.160156 102.347656 C 108.082031 102.074219 107.792969 101.917969 107.519531 101.996094 C 106.710938 102.234375 104.710938 102.246094 104.710938 102.246094 C 104.425781 102.25 104.195312 102.484375 104.199219 102.769531 C 104.203125 103.054688 104.4375 103.28125 104.722656 103.28125 Z M 104.722656 103.28125 " fill-opacity="1" fill-rule="evenodd"/><path fill="#fbe4cc" d="M 78.242188 116.386719 C 78.242188 116.386719 87.09375 119.707031 89.800781 129.878906 C 91.679688 136.933594 89.875 142.464844 84.996094 147.550781 C 84.996094 147.550781 98.007812 142.800781 102.753906 146.082031 C 106.90625 148.953125 106.847656 153.863281 99.515625 157.605469 C 91.878906 161.503906 66.929688 167.667969 55.027344 165.746094 C 47.46875 164.523438 39.851562 158.765625 37.046875 151.890625 C 34.03125 144.5 78.242188 116.386719 78.242188 116.386719 Z M 78.242188 116.386719 " fill-opacity="1" fill-rule="evenodd"/><path fill="#ecd1b5" d="M 79.683594 116.261719 C 79.683594 116.261719 73.503906 112.1875 65.429688 113.335938 C 59.636719 114.160156 55.394531 117.902344 52.800781 121.355469 C 52.628906 121.582031 52.675781 121.90625 52.902344 122.074219 C 53.132812 122.246094 53.457031 122.203125 53.625 121.972656 C 56.085938 118.707031 60.085938 115.136719 65.578125 114.359375 C 73.242188 113.265625 79.117188 117.125 79.117188 117.125 C 79.355469 117.28125 79.675781 117.214844 79.832031 116.976562 C 79.988281 116.738281 79.921875 116.417969 79.683594 116.261719 Z M 79.683594 116.261719 " fill-opacity="1" fill-rule="evenodd"/><path fill="#ecd1b5" d="M 80.136719 88.699219 C 80.136719 88.699219 78.007812 87.863281 74.820312 86.304688 C 74.566406 86.179688 74.253906 86.285156 74.128906 86.539062 C 74.003906 86.796875 74.109375 87.105469 74.367188 87.230469 C 77.597656 88.8125 79.757812 89.660156 79.757812 89.660156 C 80.027344 89.761719 80.324219 89.632812 80.429688 89.367188 C 80.535156 89.101562 80.402344 88.800781 80.136719 88.699219 Z M 80.136719 88.699219 " fill-opacity="1" fill-rule="evenodd"/><path fill="#ecd1b5" d="M 78.726562 107.011719 C 78.726562 107.011719 71.257812 105.738281 63.832031 101.164062 C 63.589844 101.015625 63.269531 101.089844 63.121094 101.332031 C 62.972656 101.574219 63.046875 101.890625 63.289062 102.042969 C 70.898438 106.730469 78.550781 108.027344 78.550781 108.027344 C 78.832031 108.078125 79.101562 107.886719 79.148438 107.605469 C 79.195312 107.324219 79.007812 107.058594 78.726562 107.011719 Z M 78.726562 107.011719 " fill-opacity="1" fill-rule="evenodd"/><path fill="#ecd1b5" d="M 83.863281 147.476562 L 77.554688 150.542969 C 77.300781 150.667969 77.191406 150.980469 77.316406 151.234375 C 77.441406 151.492188 77.75 151.597656 78.007812 151.472656 L 84.316406 148.402344 C 84.570312 148.277344 84.679688 147.96875 84.554688 147.714844 C 84.429688 147.457031 84.121094 147.351562 83.863281 147.476562 Z M 83.863281 147.476562 " fill-opacity="1" fill-rule="evenodd"/><path fill="#76503a" d="M 100.605469 148.175781 C 100.605469 148.175781 102.097656 147.421875 103.75 147.820312 C 104.027344 147.886719 104.304688 147.714844 104.371094 147.4375 C 104.4375 147.160156 104.269531 146.882812 103.992188 146.816406 C 101.964844 146.328125 100.136719 147.257812 100.136719 147.257812 C 99.882812 147.386719 99.78125 147.699219 99.910156 147.953125 C 100.039062 148.207031 100.351562 148.308594 100.605469 148.175781 Z M 100.605469 148.175781 " fill-opacity="1" fill-rule="evenodd"/><path fill="#76503a" d="M 102.078125 150.914062 C 102.078125 150.914062 103.46875 150.035156 104.804688 150.269531 C 105.085938 150.320312 105.351562 150.132812 105.402344 149.851562 C 105.453125 149.570312 105.265625 149.304688 104.984375 149.253906 C 103.296875 148.957031 101.53125 150.039062 101.53125 150.039062 C 101.289062 150.191406 101.214844 150.507812 101.367188 150.75 C 101.519531 150.992188 101.835938 151.066406 102.078125 150.914062 Z M 102.078125 150.914062 " fill-opacity="1" fill-rule="evenodd"/></svg>